# Alias OBJ Model File
# Exported from SketchUp, (c) 2000-2012 Trimble Navigation Limited
# File units = millimeters

mtllib c.mtl

g Mesh1 Group1 Model

usemtl FrontColor
v 51952.5 0 -126368
vt -686.445 0
vn 0.721166 0 -0.692762
v 39562.1 0 -136277
vt -61.8184 0
vn 0.517293 0 -0.855808
v 39562.1 72151.2 -136277
vt -61.8184 2840.6
v 51952.5 72151.2 -126368
vt -686.445 2840.6
f 1/1/1 2/2/2 3/3/2 4/4/1 

v -6424.12 0 -143274
vt -1819.51 4715.41
vn 0 -1 -0
v 9344.09 0 -145028
vt -2440.3 4784.49
v 25029.1 0 -142642
vt -3057.82 4690.54
vt -3629.98 4439.96
vt -4117.8 4049.83
v 61356.1 0 -113590
vt -4488.02 3546.75
v 67131.9 0 -98812.8
vt -4715.41 2964.98
v 68886.4 0 -83044.6
vt -4784.49 2344.19
v 66500.1 0 -67359.6
vt -4690.54 1726.67
v 60135.4 0 -52826.6
vt -4439.96 1154.5
v 50226.2 0 -40436.2
vt -4049.83 666.691
v 37447.8 0 -31032.6
vt -3546.75 296.471
v 22671 0 -25256.8
vt -2964.98 69.0757
v 6902.8 0 -23502.3
vt -2344.19 0
v -8782.23 0 -25888.6
vt -1726.67 93.9518
v -23315.2 0 -32253.3
vt -1154.5 344.528
v -35705.6 0 -42162.5
vt -666.691 734.654
v -45109.2 0 -54940.9
vt -296.471 1237.74
v -50885 0 -69717.7
vt -69.0757 1819.51
v -52639.6 0 -85485.9
vt 0 2440.3
v -50253.2 0 -101171
vt -93.9518 3057.82
v -43888.5 0 -115704
vt -344.528 3629.98
v -33979.4 0 -128094
vt -734.654 4117.8
v -21200.9 0 -137498
vt -1237.74 4488.02
f 5/5/3 6/6/3 7/7/3 2/8/3 1/9/3 8/10/3 9/11/3 10/12/3 11/13/3 12/14/3 13/15/3 14/16/3 15/17/3 16/18/3 17/19/3 18/20/3 19/21/3 20/22/3 21/23/3 22/24/3 23/25/3 24/26/3 25/27/3 26/28/3 

vt -2954.44 0
vn 0.0200846 0 -0.999798
vt -2329.81 0
vn -0.239367 0 -0.970929
v -6424.12 72151.2 -143274
vt -2329.81 2840.6
v 9344.09 72151.2 -145028
vt -2954.44 2840.6
f 6/29/4 5/30/5 27/31/5 28/32/4 

vt -3411.3 0
vt -2786.67 0
vn -0.482505 0 -0.875893
v -21200.9 72151.2 -137498
vt -2786.67 2840.6
vt -3411.3 2840.6
f 5/33/5 26/34/6 29/35/6 27/36/5 

vt -3656.97 0
vt -3032.34 0
vn -0.692762 0 -0.721166
v -33979.4 72151.2 -128094
vt -3032.34 2840.6
vt -3656.97 2840.6
f 26/37/6 25/38/7 30/39/7 29/40/6 

vt -3674.71 0
vt -3050.08 0
vn -0.855808 0 -0.517293
v -43888.5 72151.2 -115704
vt -3050.08 2840.6
vt -3674.71 2840.6
f 25/41/7 24/42/8 31/43/8 30/44/7 

vt -3463.3 0
vt -2838.68 0
vn -0.960533 0 -0.278167
v -50253.2 72151.2 -101171
vt -2838.68 2840.6
vt -3463.3 2840.6
f 24/45/8 23/46/9 32/47/9 31/48/8 

vt -3037.17 0
vt -2412.54 0
vn -0.999798 0 -0.0200846
v -52639.6 72151.2 -85485.9
vt -2412.54 2840.6
vt -3037.17 2840.6
f 23/49/9 22/50/10 33/51/10 32/52/9 

vt -2425.33 0
vt -1800.71 0
vn -0.970929 0 0.239367
v -50885 72151.2 -69717.7
vt -1800.71 2840.6
vt -2425.33 2840.6
f 22/53/10 21/54/11 34/55/11 33/56/10 

vt -1669.5 0
vt -1044.88 0
vn -0.875893 0 0.482505
v -45109.2 72151.2 -54940.9
vt -1044.88 2840.6
vt -1669.5 2840.6
f 21/57/11 20/58/12 35/59/12 34/60/11 

vt -821.181 0
vt -196.554 0
vn -0.721166 0 0.692762
v -35705.6 72151.2 -42162.5
vt -196.554 2840.6
vt -821.181 2840.6
f 20/61/12 19/62/13 36/63/13 35/64/12 

vt 61.8184 0
vt 686.445 0
vn -0.517293 0 0.855808
v -23315.2 72151.2 -32253.3
vt 686.445 2840.6
vt 61.8184 2840.6
f 19/65/13 18/66/14 37/67/14 36/68/13 

vt 919.322 0
vt 1543.95 0
vn -0.278167 0 0.960533
v -8782.23 72151.2 -25888.6
vt 1543.95 2840.6
vt 919.322 2840.6
f 18/69/14 17/70/15 38/71/15 37/72/14 

vt 1692.89 0
vt 2317.52 0
vn -0.0200846 0 0.999798
v 6902.8 72151.2 -23502.3
vt 2317.52 2840.6
vt 1692.89 2840.6
f 17/73/15 16/74/16 39/75/16 38/76/15 

vt 2329.81 0
vt 2954.44 0
vn 0.239367 0 0.970929
v 22671 72151.2 -25256.8
vt 2954.44 2840.6
vt 2329.81 2840.6
f 16/77/16 15/78/17 40/79/17 39/80/16 

vt 2786.67 0
vt 3411.3 0
vn 0.482505 0 0.875893
v 37447.8 72151.2 -31032.6
vt 3411.3 2840.6
vt 2786.67 2840.6
f 15/81/17 14/82/18 41/83/18 40/84/17 

vt 3032.34 0
vt 3656.97 0
vn 0.692762 0 0.721166
v 50226.2 72151.2 -40436.2
vt 3656.97 2840.6
vt 3032.34 2840.6
f 14/85/18 13/86/19 42/87/19 41/88/18 

vt 3050.08 0
vt 3674.71 0
vn 0.855808 0 0.517293
v 60135.4 72151.2 -52826.6
vt 3674.71 2840.6
vt 3050.08 2840.6
f 13/89/19 12/90/20 43/91/20 42/92/19 

vt 2838.68 0
vt 3463.3 0
vn 0.960533 0 0.278167
v 66500.1 72151.2 -67359.6
vt 3463.3 2840.6
vt 2838.68 2840.6
f 12/93/20 11/94/21 44/95/21 43/96/20 

vt 2412.54 0
vt 3037.17 0
vn 0.999798 0 0.0200846
v 68886.4 72151.2 -83044.6
vt 3037.17 2840.6
vt 2412.54 2840.6
f 11/97/21 10/98/22 45/99/22 44/100/21 

vt 1800.71 0
vt 2425.33 0
vn 0.970929 0 -0.239367
v 67131.9 72151.2 -98812.8
vt 2425.33 2840.6
vt 1800.71 2840.6
f 10/101/22 9/102/23 46/103/23 45/104/22 

vt 1044.88 0
vt 1669.5 0
vn 0.875893 0 -0.482505
v 61356.1 72151.2 -113590
vt 1669.5 2840.6
vt 1044.88 2840.6
f 9/105/23 8/106/24 47/107/24 46/108/23 

vt 196.554 0
vt 821.181 0
vt 821.181 2840.6
vt 196.554 2840.6
f 8/109/24 1/110/1 4/111/1 47/112/24 

vt 2440.3 4784.49
vn 0 1 -0
vt 1819.51 4715.41
vt 1237.74 4488.02
vt 734.654 4117.8
vt 344.528 3629.98
vt 93.9518 3057.82
vt 69.0757 1819.51
vt 296.471 1237.74
vt 666.691 734.654
vt 1154.5 344.528
vt 1726.67 93.9518
vt 2344.19 0
vt 2964.98 69.0757
vt 3546.75 296.471
vt 4049.83 666.691
vt 4439.96 1154.5
vt 4690.54 1726.67
vt 4784.49 2344.19
vt 4715.41 2964.98
vt 4488.02 3546.75
vt 4117.8 4049.83
vt 3629.98 4439.96
v 25029.1 72151.2 -142642
vt 3057.82 4690.54
f 28/113/25 27/114/25 29/115/25 30/116/25 31/117/25 32/118/25 33/24/25 34/119/25 35/120/25 36/121/25 37/122/25 38/123/25 39/124/25 40/125/25 41/126/25 42/127/25 43/128/25 44/129/25 45/130/25 46/131/25 47/132/25 4/133/25 3/134/25 48/135/25 

vt -1543.95 0
vt -919.322 0
vn 0.278167 0 -0.960533
vt -919.322 2840.6
vt -1543.95 2840.6
f 2/136/2 7/137/26 48/138/26 3/139/2 

vt -2317.52 0
vt -1692.89 0
vt -1692.89 2840.6
vt -2317.52 2840.6
f 7/140/26 6/141/4 28/142/4 48/143/26 

