# Alias OBJ Model File
# Exported from SketchUp, (c) 2000-2012 Trimble Navigation Limited
# File units = millimeters

mtllib d4.mtl

g Mesh1 Group1 Model

usemtl FrontColor
v 19171.1 0 -0
vt 0 0
vn 1 0 -0
v 19171.1 0 -11118.6
vt 437.739 0
v 19171.1 5034.82 -11118.6
vt 437.739 198.221
v 19171.1 5034.82 -0
vt 0 198.221
f 1/1/1 2/2/1 3/3/1 4/4/1 

v 0 0 -0
vn 0 -1 -0
v 0 0 -11118.6
vt 0 437.739
vt -754.769 437.739
vt -754.769 0
f 5/1/2 6/5/2 2/6/2 1/7/2 

vt -437.739 0
vn -1 0 -0
v 0 5034.82 -0
v 0 5034.82 -11118.6
vt -437.739 198.221
f 6/8/3 5/1/3 7/4/3 8/9/3 

vn 0 0 1
vt 754.769 0
vt 754.769 198.221
f 5/1/4 1/10/4 4/11/4 7/4/4 

vn 0 1 -0
vt 754.769 437.739
f 8/5/5 7/1/5 4/10/5 3/12/5 

vn 0 0 -1
vt -754.769 198.221
f 2/7/6 6/1/6 8/4/6 3/13/6 

g Mesh2 Group2 Model

v 19171.1 0 -20842.1
v 19171.1 0 -31960.7
v 19171.1 5034.82 -31960.7
v 19171.1 5034.82 -20842.1
f 9/1/1 10/2/1 11/3/1 12/4/1 

v 0 0 -20842.1
v 0 0 -31960.7
f 13/1/2 14/5/2 10/6/2 9/7/2 

v 0 5034.82 -20842.1
v 0 5034.82 -31960.7
f 14/8/3 13/1/3 15/4/3 16/9/3 

f 13/1/4 9/10/4 12/11/4 15/4/4 

f 16/5/5 15/1/5 12/10/5 11/12/5 

f 10/7/6 14/1/6 16/4/6 11/13/6 

g Mesh3 Group3 Model

v 19171.1 0 -41684.2
v 19171.1 0 -52802.8
v 19171.1 5034.82 -52802.8
v 19171.1 5034.82 -41684.2
f 17/1/1 18/2/1 19/3/1 20/4/1 

v 0 0 -41684.2
v 0 0 -52802.8
f 21/1/2 22/5/2 18/6/2 17/7/2 

v 0 5034.82 -41684.2
v 0 5034.82 -52802.8
f 22/8/3 21/1/3 23/4/3 24/9/3 

f 21/1/4 17/10/4 20/11/4 23/4/4 

f 24/5/5 23/1/5 20/10/5 19/12/5 

f 18/7/6 22/1/6 24/4/6 19/13/6 

g Mesh4 Group4 Model

v 19171.1 0 -62526.3
v 19171.1 0 -73644.9
v 19171.1 5034.82 -73644.9
v 19171.1 5034.82 -62526.3
f 25/1/1 26/2/1 27/3/1 28/4/1 

v 0 0 -62526.3
v 0 0 -73644.9
f 29/1/2 30/5/2 26/6/2 25/7/2 

v 0 5034.82 -62526.3
v 0 5034.82 -73644.9
f 30/8/3 29/1/3 31/4/3 32/9/3 

f 29/1/4 25/10/4 28/11/4 31/4/4 

f 32/5/5 31/1/5 28/10/5 27/12/5 

f 26/7/6 30/1/6 32/4/6 27/13/6 

g Mesh5 Group5 Model

v 19171.1 0 -83368.4
v 19171.1 0 -94487
v 19171.1 5034.82 -94487
v 19171.1 5034.82 -83368.4
f 33/1/1 34/2/1 35/3/1 36/4/1 

v 0 0 -83368.4
v 0 0 -94487
f 37/1/2 38/5/2 34/6/2 33/7/2 

v 0 5034.82 -83368.4
v 0 5034.82 -94487
f 38/8/3 37/1/3 39/4/3 40/9/3 

f 37/1/4 33/10/4 36/11/4 39/4/4 

f 40/5/5 39/1/5 36/10/5 35/12/5 

f 34/7/6 38/1/6 40/4/6 35/13/6 

g Mesh6 Group6 Model

v 19171.1 0 -104210
v 19171.1 0 -115329
v 19171.1 5034.82 -115329
v 19171.1 5034.82 -104210
f 41/1/1 42/2/1 43/3/1 44/4/1 

v 0 0 -104210
v 0 0 -115329
f 45/1/2 46/5/2 42/6/2 41/7/2 

v 0 5034.82 -104210
v 0 5034.82 -115329
f 46/8/3 45/1/3 47/4/3 48/9/3 

f 45/1/4 41/10/4 44/11/4 47/4/4 

f 48/5/5 47/1/5 44/10/5 43/12/5 

f 42/7/6 46/1/6 48/4/6 43/13/6 

g Mesh7 Group7 Model

v 19171.1 13043.7 -41684.2
v 19171.1 13043.7 -52802.8
v 19171.1 18078.5 -52802.8
v 19171.1 18078.5 -41684.2
f 49/1/1 50/2/1 51/3/1 52/4/1 

v 0 13043.7 -41684.2
v 0 13043.7 -52802.8
f 53/1/2 54/5/2 50/6/2 49/7/2 

v 0 18078.5 -41684.2
v 0 18078.5 -52802.8
f 54/8/3 53/1/3 55/4/3 56/9/3 

f 53/1/4 49/10/4 52/11/4 55/4/4 

f 56/5/5 55/1/5 52/10/5 51/12/5 

f 50/7/6 54/1/6 56/4/6 51/13/6 

g Mesh8 Group8 Model

v 19171.1 13043.7 -83368.4
v 19171.1 13043.7 -94487
v 19171.1 18078.5 -94487
v 19171.1 18078.5 -83368.4
f 57/1/1 58/2/1 59/3/1 60/4/1 

v 0 13043.7 -83368.4
v 0 13043.7 -94487
f 61/1/2 62/5/2 58/6/2 57/7/2 

v 0 18078.5 -83368.4
v 0 18078.5 -94487
f 62/8/3 61/1/3 63/4/3 64/9/3 

f 61/1/4 57/10/4 60/11/4 63/4/4 

f 64/5/5 63/1/5 60/10/5 59/12/5 

f 58/7/6 62/1/6 64/4/6 59/13/6 

g Mesh9 Group9 Model

v 19171.1 13043.7 -20842.1
v 19171.1 13043.7 -31960.7
v 19171.1 18078.5 -31960.7
v 19171.1 18078.5 -20842.1
f 65/1/1 66/2/1 67/3/1 68/4/1 

v 0 13043.7 -20842.1
v 0 13043.7 -31960.7
f 69/1/2 70/5/2 66/6/2 65/7/2 

v 0 18078.5 -20842.1
v 0 18078.5 -31960.7
f 70/8/3 69/1/3 71/4/3 72/9/3 

f 69/1/4 65/10/4 68/11/4 71/4/4 

f 72/5/5 71/1/5 68/10/5 67/12/5 

f 66/7/6 70/1/6 72/4/6 67/13/6 

g Mesh10 Group10 Model

v 19171.1 13043.7 -62526.3
v 19171.1 13043.7 -73644.9
v 19171.1 18078.5 -73644.9
v 19171.1 18078.5 -62526.3
f 73/1/1 74/2/1 75/3/1 76/4/1 

v 0 13043.7 -62526.3
v 0 13043.7 -73644.9
f 77/1/2 78/5/2 74/6/2 73/7/2 

v 0 18078.5 -62526.3
v 0 18078.5 -73644.9
f 78/8/3 77/1/3 79/4/3 80/9/3 

f 77/1/4 73/10/4 76/11/4 79/4/4 

f 80/5/5 79/1/5 76/10/5 75/12/5 

f 74/7/6 78/1/6 80/4/6 75/13/6 

g Mesh11 Group11 Model

v 19171.1 13043.7 -104210
v 19171.1 13043.7 -115329
v 19171.1 18078.5 -115329
v 19171.1 18078.5 -104210
f 81/1/1 82/2/1 83/3/1 84/4/1 

v 0 13043.7 -104210
v 0 13043.7 -115329
f 85/1/2 86/5/2 82/6/2 81/7/2 

v 0 18078.5 -104210
v 0 18078.5 -115329
f 86/8/3 85/1/3 87/4/3 88/9/3 

f 85/1/4 81/10/4 84/11/4 87/4/4 

f 88/5/5 87/1/5 84/10/5 83/12/5 

f 82/7/6 86/1/6 88/4/6 83/13/6 

g Mesh12 Group12 Model

v 19171.1 13043.7 -0
v 19171.1 13043.7 -11118.6
v 19171.1 18078.5 -11118.6
v 19171.1 18078.5 -0
f 89/1/1 90/2/1 91/3/1 92/4/1 

v 0 13043.7 -0
v 0 13043.7 -11118.6
f 93/1/2 94/5/2 90/6/2 89/7/2 

v 0 18078.5 -0
v 0 18078.5 -11118.6
f 94/8/3 93/1/3 95/4/3 96/9/3 

f 93/1/4 89/10/4 92/11/4 95/4/4 

f 96/5/5 95/1/5 92/10/5 91/12/5 

f 90/7/6 94/1/6 96/4/6 91/13/6 

g Mesh13 Group13 Model

v 19171.1 26087.3 -41684.2
v 19171.1 26087.3 -52802.8
v 19171.1 31122.2 -52802.8
v 19171.1 31122.2 -41684.2
f 97/1/1 98/2/1 99/3/1 100/4/1 

v 0 26087.3 -41684.2
v 0 26087.3 -52802.8
f 101/1/2 102/5/2 98/6/2 97/7/2 

v 0 31122.2 -41684.2
v 0 31122.2 -52802.8
f 102/8/3 101/1/3 103/4/3 104/9/3 

f 101/1/4 97/10/4 100/11/4 103/4/4 

f 104/5/5 103/1/5 100/10/5 99/12/5 

f 98/7/6 102/1/6 104/4/6 99/13/6 

g Mesh14 Group14 Model

v 19171.1 26087.3 -83368.4
v 19171.1 26087.3 -94487
v 19171.1 31122.2 -94487
v 19171.1 31122.2 -83368.4
f 105/1/1 106/2/1 107/3/1 108/4/1 

v 0 26087.3 -83368.4
v 0 26087.3 -94487
f 109/1/2 110/5/2 106/6/2 105/7/2 

v 0 31122.2 -83368.4
v 0 31122.2 -94487
f 110/8/3 109/1/3 111/4/3 112/9/3 

f 109/1/4 105/10/4 108/11/4 111/4/4 

f 112/5/5 111/1/5 108/10/5 107/12/5 

f 106/7/6 110/1/6 112/4/6 107/13/6 

g Mesh15 Group15 Model

v 19171.1 26087.3 -20842.1
v 19171.1 26087.3 -31960.7
v 19171.1 31122.2 -31960.7
v 19171.1 31122.2 -20842.1
f 113/1/1 114/2/1 115/3/1 116/4/1 

v 0 26087.3 -20842.1
v 0 26087.3 -31960.7
f 117/1/2 118/5/2 114/6/2 113/7/2 

v 0 31122.2 -20842.1
v 0 31122.2 -31960.7
f 118/8/3 117/1/3 119/4/3 120/9/3 

f 117/1/4 113/10/4 116/11/4 119/4/4 

f 120/5/5 119/1/5 116/10/5 115/12/5 

f 114/7/6 118/1/6 120/4/6 115/13/6 

g Mesh16 Group16 Model

v 19171.1 26087.3 -62526.3
v 19171.1 26087.3 -73644.9
v 19171.1 31122.2 -73644.9
v 19171.1 31122.2 -62526.3
f 121/1/1 122/2/1 123/3/1 124/4/1 

v 0 26087.3 -62526.3
v 0 26087.3 -73644.9
f 125/1/2 126/5/2 122/6/2 121/7/2 

v 0 31122.2 -62526.3
v 0 31122.2 -73644.9
f 126/8/3 125/1/3 127/4/3 128/9/3 

f 125/1/4 121/10/4 124/11/4 127/4/4 

f 128/5/5 127/1/5 124/10/5 123/12/5 

f 122/7/6 126/1/6 128/4/6 123/13/6 

g Mesh17 Group17 Model

v 19171.1 26087.3 -104210
v 19171.1 26087.3 -115329
v 19171.1 31122.2 -115329
v 19171.1 31122.2 -104210
f 129/1/1 130/2/1 131/3/1 132/4/1 

v 0 26087.3 -104210
v 0 26087.3 -115329
f 133/1/2 134/5/2 130/6/2 129/7/2 

v 0 31122.2 -104210
v 0 31122.2 -115329
f 134/8/3 133/1/3 135/4/3 136/9/3 

f 133/1/4 129/10/4 132/11/4 135/4/4 

f 136/5/5 135/1/5 132/10/5 131/12/5 

f 130/7/6 134/1/6 136/4/6 131/13/6 

g Mesh18 Group18 Model

v 19171.1 26087.3 -0
v 19171.1 26087.3 -11118.6
v 19171.1 31122.2 -11118.6
v 19171.1 31122.2 -0
f 137/1/1 138/2/1 139/3/1 140/4/1 

v 0 26087.3 -0
v 0 26087.3 -11118.6
f 141/1/2 142/5/2 138/6/2 137/7/2 

v 0 31122.2 -0
v 0 31122.2 -11118.6
f 142/8/3 141/1/3 143/4/3 144/9/3 

f 141/1/4 137/10/4 140/11/4 143/4/4 

f 144/5/5 143/1/5 140/10/5 139/12/5 

f 138/7/6 142/1/6 144/4/6 139/13/6 

g Mesh19 Group19 Model

v 19171.1 39131 -41684.2
v 19171.1 39131 -52802.8
v 19171.1 44165.8 -52802.8
v 19171.1 44165.8 -41684.2
f 145/1/1 146/2/1 147/3/1 148/4/1 

v 0 39131 -41684.2
v 0 39131 -52802.8
f 149/1/2 150/5/2 146/6/2 145/7/2 

v 0 44165.8 -41684.2
v 0 44165.8 -52802.8
f 150/8/3 149/1/3 151/4/3 152/9/3 

f 149/1/4 145/10/4 148/11/4 151/4/4 

f 152/5/5 151/1/5 148/10/5 147/12/5 

f 146/7/6 150/1/6 152/4/6 147/13/6 

g Mesh20 Group20 Model

v 19171.1 39131 -83368.4
v 19171.1 39131 -94487
v 19171.1 44165.8 -94487
v 19171.1 44165.8 -83368.4
f 153/1/1 154/2/1 155/3/1 156/4/1 

v 0 39131 -83368.4
v 0 39131 -94487
f 157/1/2 158/5/2 154/6/2 153/7/2 

v 0 44165.8 -83368.4
v 0 44165.8 -94487
f 158/8/3 157/1/3 159/4/3 160/9/3 

f 157/1/4 153/10/4 156/11/4 159/4/4 

f 160/5/5 159/1/5 156/10/5 155/12/5 

f 154/7/6 158/1/6 160/4/6 155/13/6 

g Mesh21 Group21 Model

v 19171.1 39131 -20842.1
v 19171.1 39131 -31960.7
v 19171.1 44165.8 -31960.7
v 19171.1 44165.8 -20842.1
f 161/1/1 162/2/1 163/3/1 164/4/1 

v 0 39131 -20842.1
v 0 39131 -31960.7
f 165/1/2 166/5/2 162/6/2 161/7/2 

v 0 44165.8 -20842.1
v 0 44165.8 -31960.7
f 166/8/3 165/1/3 167/4/3 168/9/3 

f 165/1/4 161/10/4 164/11/4 167/4/4 

f 168/5/5 167/1/5 164/10/5 163/12/5 

f 162/7/6 166/1/6 168/4/6 163/13/6 

g Mesh22 Group22 Model

v 19171.1 39131 -62526.3
v 19171.1 39131 -73644.9
v 19171.1 44165.8 -73644.9
v 19171.1 44165.8 -62526.3
f 169/1/1 170/2/1 171/3/1 172/4/1 

v 0 39131 -62526.3
v 0 39131 -73644.9
f 173/1/2 174/5/2 170/6/2 169/7/2 

v 0 44165.8 -62526.3
v 0 44165.8 -73644.9
f 174/8/3 173/1/3 175/4/3 176/9/3 

f 173/1/4 169/10/4 172/11/4 175/4/4 

f 176/5/5 175/1/5 172/10/5 171/12/5 

f 170/7/6 174/1/6 176/4/6 171/13/6 

g Mesh23 Group23 Model

v 19171.1 39131 -104210
v 19171.1 39131 -115329
v 19171.1 44165.8 -115329
v 19171.1 44165.8 -104210
f 177/1/1 178/2/1 179/3/1 180/4/1 

v 0 39131 -104210
v 0 39131 -115329
f 181/1/2 182/5/2 178/6/2 177/7/2 

v 0 44165.8 -104210
v 0 44165.8 -115329
f 182/8/3 181/1/3 183/4/3 184/9/3 

f 181/1/4 177/10/4 180/11/4 183/4/4 

f 184/5/5 183/1/5 180/10/5 179/12/5 

f 178/7/6 182/1/6 184/4/6 179/13/6 

g Mesh24 Group24 Model

v 19171.1 39131 -0
v 19171.1 39131 -11118.6
v 19171.1 44165.8 -11118.6
v 19171.1 44165.8 -0
f 185/1/1 186/2/1 187/3/1 188/4/1 

v 0 39131 -0
v 0 39131 -11118.6
f 189/1/2 190/5/2 186/6/2 185/7/2 

v 0 44165.8 -0
v 0 44165.8 -11118.6
f 190/8/3 189/1/3 191/4/3 192/9/3 

f 189/1/4 185/10/4 188/11/4 191/4/4 

f 192/5/5 191/1/5 188/10/5 187/12/5 

f 186/7/6 190/1/6 192/4/6 187/13/6 

g Mesh25 Group25 Model

v 86987.1 39131 -62526.3
v 86987.1 39131 -73644.9
v 86987.1 44165.8 -73644.9
v 86987.1 44165.8 -62526.3
f 193/1/1 194/2/1 195/3/1 196/4/1 

v 67816 39131 -62526.3
v 67816 39131 -73644.9
f 197/1/2 198/5/2 194/6/2 193/7/2 

v 67816 44165.8 -62526.3
v 67816 44165.8 -73644.9
f 198/8/3 197/1/3 199/4/3 200/9/3 

f 197/1/4 193/10/4 196/11/4 199/4/4 

f 200/5/5 199/1/5 196/10/5 195/12/5 

f 194/7/6 198/1/6 200/4/6 195/13/6 

g Mesh26 Group26 Model

v 86987.1 26087.3 -0
v 86987.1 26087.3 -11118.6
v 86987.1 31122.2 -11118.6
v 86987.1 31122.2 -0
f 201/1/1 202/2/1 203/3/1 204/4/1 

v 67816 26087.3 -0
v 67816 26087.3 -11118.6
f 205/1/2 206/5/2 202/6/2 201/7/2 

v 67816 31122.2 -0
v 67816 31122.2 -11118.6
f 206/8/3 205/1/3 207/4/3 208/9/3 

f 205/1/4 201/10/4 204/11/4 207/4/4 

f 208/5/5 207/1/5 204/10/5 203/12/5 

f 202/7/6 206/1/6 208/4/6 203/13/6 

g Mesh27 Group27 Model

v 86987.1 39131 -20842.1
v 86987.1 39131 -31960.7
v 86987.1 44165.8 -31960.7
v 86987.1 44165.8 -20842.1
f 209/1/1 210/2/1 211/3/1 212/4/1 

v 67816 39131 -20842.1
v 67816 39131 -31960.7
f 213/1/2 214/5/2 210/6/2 209/7/2 

v 67816 44165.8 -20842.1
v 67816 44165.8 -31960.7
f 214/8/3 213/1/3 215/4/3 216/9/3 

f 213/1/4 209/10/4 212/11/4 215/4/4 

f 216/5/5 215/1/5 212/10/5 211/12/5 

f 210/7/6 214/1/6 216/4/6 211/13/6 

g Mesh28 Group28 Model

v 86987.1 39131 -41684.2
v 86987.1 39131 -52802.8
v 86987.1 44165.8 -52802.8
v 86987.1 44165.8 -41684.2
f 217/1/1 218/2/1 219/3/1 220/4/1 

v 67816 39131 -41684.2
v 67816 39131 -52802.8
f 221/1/2 222/5/2 218/6/2 217/7/2 

v 67816 44165.8 -41684.2
v 67816 44165.8 -52802.8
f 222/8/3 221/1/3 223/4/3 224/9/3 

f 221/1/4 217/10/4 220/11/4 223/4/4 

f 224/5/5 223/1/5 220/10/5 219/12/5 

f 218/7/6 222/1/6 224/4/6 219/13/6 

g Mesh29 Group29 Model

v 86987.1 39131 -104210
v 86987.1 39131 -115329
v 86987.1 44165.8 -115329
v 86987.1 44165.8 -104210
f 225/1/1 226/2/1 227/3/1 228/4/1 

v 67816 39131 -104210
v 67816 39131 -115329
f 229/1/2 230/5/2 226/6/2 225/7/2 

v 67816 44165.8 -104210
v 67816 44165.8 -115329
f 230/8/3 229/1/3 231/4/3 232/9/3 

f 229/1/4 225/10/4 228/11/4 231/4/4 

f 232/5/5 231/1/5 228/10/5 227/12/5 

f 226/7/6 230/1/6 232/4/6 227/13/6 

g Mesh30 Group30 Model

v 86987.1 39131 -0
v 86987.1 39131 -11118.6
v 86987.1 44165.8 -11118.6
v 86987.1 44165.8 -0
f 233/1/1 234/2/1 235/3/1 236/4/1 

v 67816 39131 -0
v 67816 39131 -11118.6
f 237/1/2 238/5/2 234/6/2 233/7/2 

v 67816 44165.8 -0
v 67816 44165.8 -11118.6
f 238/8/3 237/1/3 239/4/3 240/9/3 

f 237/1/4 233/10/4 236/11/4 239/4/4 

f 240/5/5 239/1/5 236/10/5 235/12/5 

f 234/7/6 238/1/6 240/4/6 235/13/6 

g Mesh31 Group31 Model

v 86987.1 39131 -83368.4
v 86987.1 39131 -94487
v 86987.1 44165.8 -94487
v 86987.1 44165.8 -83368.4
f 241/1/1 242/2/1 243/3/1 244/4/1 

v 67816 39131 -83368.4
v 67816 39131 -94487
f 245/1/2 246/5/2 242/6/2 241/7/2 

v 67816 44165.8 -83368.4
v 67816 44165.8 -94487
f 246/8/3 245/1/3 247/4/3 248/9/3 

f 245/1/4 241/10/4 244/11/4 247/4/4 

f 248/5/5 247/1/5 244/10/5 243/12/5 

f 242/7/6 246/1/6 248/4/6 243/13/6 

g Mesh32 Group32 Model

v 86987.1 26087.3 -62526.3
v 86987.1 26087.3 -73644.9
v 86987.1 31122.2 -73644.9
v 86987.1 31122.2 -62526.3
f 249/1/1 250/2/1 251/3/1 252/4/1 

v 67816 26087.3 -62526.3
v 67816 26087.3 -73644.9
f 253/1/2 254/5/2 250/6/2 249/7/2 

v 67816 31122.2 -62526.3
v 67816 31122.2 -73644.9
f 254/8/3 253/1/3 255/4/3 256/9/3 

f 253/1/4 249/10/4 252/11/4 255/4/4 

f 256/5/5 255/1/5 252/10/5 251/12/5 

f 250/7/6 254/1/6 256/4/6 251/13/6 

g Mesh33 Group33 Model

v 86987.1 26087.3 -104210
v 86987.1 26087.3 -115329
v 86987.1 31122.2 -115329
v 86987.1 31122.2 -104210
f 257/1/1 258/2/1 259/3/1 260/4/1 

v 67816 26087.3 -104210
v 67816 26087.3 -115329
f 261/1/2 262/5/2 258/6/2 257/7/2 

v 67816 31122.2 -104210
v 67816 31122.2 -115329
f 262/8/3 261/1/3 263/4/3 264/9/3 

f 261/1/4 257/10/4 260/11/4 263/4/4 

f 264/5/5 263/1/5 260/10/5 259/12/5 

f 258/7/6 262/1/6 264/4/6 259/13/6 

g Mesh34 Group34 Model

v 86987.1 26087.3 -20842.1
v 86987.1 26087.3 -31960.7
v 86987.1 31122.2 -31960.7
v 86987.1 31122.2 -20842.1
f 265/1/1 266/2/1 267/3/1 268/4/1 

v 67816 26087.3 -20842.1
v 67816 26087.3 -31960.7
f 269/1/2 270/5/2 266/6/2 265/7/2 

v 67816 31122.2 -20842.1
v 67816 31122.2 -31960.7
f 270/8/3 269/1/3 271/4/3 272/9/3 

f 269/1/4 265/10/4 268/11/4 271/4/4 

f 272/5/5 271/1/5 268/10/5 267/12/5 

f 266/7/6 270/1/6 272/4/6 267/13/6 

g Mesh35 Group35 Model

v 86987.1 26087.3 -41684.2
v 86987.1 26087.3 -52802.8
v 86987.1 31122.2 -52802.8
v 86987.1 31122.2 -41684.2
f 273/1/1 274/2/1 275/3/1 276/4/1 

v 67816 26087.3 -41684.2
v 67816 26087.3 -52802.8
f 277/1/2 278/5/2 274/6/2 273/7/2 

v 67816 31122.2 -41684.2
v 67816 31122.2 -52802.8
f 278/8/3 277/1/3 279/4/3 280/9/3 

f 277/1/4 273/10/4 276/11/4 279/4/4 

f 280/5/5 279/1/5 276/10/5 275/12/5 

f 274/7/6 278/1/6 280/4/6 275/13/6 

g Mesh36 Group36 Model

v 86987.1 13043.7 -83368.4
v 86987.1 13043.7 -94487
v 86987.1 18078.5 -94487
v 86987.1 18078.5 -83368.4
f 281/1/1 282/2/1 283/3/1 284/4/1 

v 67816 13043.7 -83368.4
v 67816 13043.7 -94487
f 285/1/2 286/5/2 282/6/2 281/7/2 

v 67816 18078.5 -83368.4
v 67816 18078.5 -94487
f 286/8/3 285/1/3 287/4/3 288/9/3 

f 285/1/4 281/10/4 284/11/4 287/4/4 

f 288/5/5 287/1/5 284/10/5 283/12/5 

f 282/7/6 286/1/6 288/4/6 283/13/6 

g Mesh37 Group37 Model

v 86987.1 13043.7 -0
v 86987.1 13043.7 -11118.6
v 86987.1 18078.5 -11118.6
v 86987.1 18078.5 -0
f 289/1/1 290/2/1 291/3/1 292/4/1 

v 67816 13043.7 -0
v 67816 13043.7 -11118.6
f 293/1/2 294/5/2 290/6/2 289/7/2 

v 67816 18078.5 -0
v 67816 18078.5 -11118.6
f 294/8/3 293/1/3 295/4/3 296/9/3 

f 293/1/4 289/10/4 292/11/4 295/4/4 

f 296/5/5 295/1/5 292/10/5 291/12/5 

f 290/7/6 294/1/6 296/4/6 291/13/6 

g Mesh38 Group38 Model

v 86987.1 13043.7 -41684.2
v 86987.1 13043.7 -52802.8
v 86987.1 18078.5 -52802.8
v 86987.1 18078.5 -41684.2
f 297/1/1 298/2/1 299/3/1 300/4/1 

v 67816 13043.7 -41684.2
v 67816 13043.7 -52802.8
f 301/1/2 302/5/2 298/6/2 297/7/2 

v 67816 18078.5 -41684.2
v 67816 18078.5 -52802.8
f 302/8/3 301/1/3 303/4/3 304/9/3 

f 301/1/4 297/10/4 300/11/4 303/4/4 

f 304/5/5 303/1/5 300/10/5 299/12/5 

f 298/7/6 302/1/6 304/4/6 299/13/6 

g Mesh39 Group39 Model

v 86987.1 13043.7 -20842.1
v 86987.1 13043.7 -31960.7
v 86987.1 18078.5 -31960.7
v 86987.1 18078.5 -20842.1
f 305/1/1 306/2/1 307/3/1 308/4/1 

v 67816 13043.7 -20842.1
v 67816 13043.7 -31960.7
f 309/1/2 310/5/2 306/6/2 305/7/2 

v 67816 18078.5 -20842.1
v 67816 18078.5 -31960.7
f 310/8/3 309/1/3 311/4/3 312/9/3 

f 309/1/4 305/10/4 308/11/4 311/4/4 

f 312/5/5 311/1/5 308/10/5 307/12/5 

f 306/7/6 310/1/6 312/4/6 307/13/6 

g Mesh40 Group40 Model

v 86987.1 13043.7 -62526.3
v 86987.1 13043.7 -73644.9
v 86987.1 18078.5 -73644.9
v 86987.1 18078.5 -62526.3
f 313/1/1 314/2/1 315/3/1 316/4/1 

v 67816 13043.7 -62526.3
v 67816 13043.7 -73644.9
f 317/1/2 318/5/2 314/6/2 313/7/2 

v 67816 18078.5 -62526.3
v 67816 18078.5 -73644.9
f 318/8/3 317/1/3 319/4/3 320/9/3 

f 317/1/4 313/10/4 316/11/4 319/4/4 

f 320/5/5 319/1/5 316/10/5 315/12/5 

f 314/7/6 318/1/6 320/4/6 315/13/6 

g Mesh41 Group41 Model

v 86987.1 13043.7 -104210
v 86987.1 13043.7 -115329
v 86987.1 18078.5 -115329
v 86987.1 18078.5 -104210
f 321/1/1 322/2/1 323/3/1 324/4/1 

v 67816 13043.7 -104210
v 67816 13043.7 -115329
f 325/1/2 326/5/2 322/6/2 321/7/2 

v 67816 18078.5 -104210
v 67816 18078.5 -115329
f 326/8/3 325/1/3 327/4/3 328/9/3 

f 325/1/4 321/10/4 324/11/4 327/4/4 

f 328/5/5 327/1/5 324/10/5 323/12/5 

f 322/7/6 326/1/6 328/4/6 323/13/6 

g Mesh42 Group42 Model

v 86987.1 26087.3 -83368.4
v 86987.1 26087.3 -94487
v 86987.1 31122.2 -94487
v 86987.1 31122.2 -83368.4
f 329/1/1 330/2/1 331/3/1 332/4/1 

v 67816 26087.3 -83368.4
v 67816 26087.3 -94487
f 333/1/2 334/5/2 330/6/2 329/7/2 

v 67816 31122.2 -83368.4
v 67816 31122.2 -94487
f 334/8/3 333/1/3 335/4/3 336/9/3 

f 333/1/4 329/10/4 332/11/4 335/4/4 

f 336/5/5 335/1/5 332/10/5 331/12/5 

f 330/7/6 334/1/6 336/4/6 331/13/6 

g Mesh43 Group43 Model

v 86987.1 0 -41684.2
v 86987.1 0 -52802.8
v 86987.1 5034.82 -52802.8
v 86987.1 5034.82 -41684.2
f 337/1/1 338/2/1 339/3/1 340/4/1 

v 67816 0 -41684.2
v 67816 0 -52802.8
f 341/1/2 342/5/2 338/6/2 337/7/2 

v 67816 5034.82 -41684.2
v 67816 5034.82 -52802.8
f 342/8/3 341/1/3 343/4/3 344/9/3 

f 341/1/4 337/10/4 340/11/4 343/4/4 

f 344/5/5 343/1/5 340/10/5 339/12/5 

f 338/7/6 342/1/6 344/4/6 339/13/6 

g Mesh44 Group44 Model

v 86987.1 0 -83368.4
v 86987.1 0 -94487
v 86987.1 5034.82 -94487
v 86987.1 5034.82 -83368.4
f 345/1/1 346/2/1 347/3/1 348/4/1 

v 67816 0 -83368.4
v 67816 0 -94487
f 349/1/2 350/5/2 346/6/2 345/7/2 

v 67816 5034.82 -83368.4
v 67816 5034.82 -94487
f 350/8/3 349/1/3 351/4/3 352/9/3 

f 349/1/4 345/10/4 348/11/4 351/4/4 

f 352/5/5 351/1/5 348/10/5 347/12/5 

f 346/7/6 350/1/6 352/4/6 347/13/6 

g Mesh45 Group45 Model

v 86987.1 0 -20842.1
v 86987.1 0 -31960.7
v 86987.1 5034.82 -31960.7
v 86987.1 5034.82 -20842.1
f 353/1/1 354/2/1 355/3/1 356/4/1 

v 67816 0 -20842.1
v 67816 0 -31960.7
f 357/1/2 358/5/2 354/6/2 353/7/2 

v 67816 5034.82 -20842.1
v 67816 5034.82 -31960.7
f 358/8/3 357/1/3 359/4/3 360/9/3 

f 357/1/4 353/10/4 356/11/4 359/4/4 

f 360/5/5 359/1/5 356/10/5 355/12/5 

f 354/7/6 358/1/6 360/4/6 355/13/6 

g Mesh46 Group46 Model

v 86987.1 0 -62526.3
v 86987.1 0 -73644.9
v 86987.1 5034.82 -73644.9
v 86987.1 5034.82 -62526.3
f 361/1/1 362/2/1 363/3/1 364/4/1 

v 67816 0 -62526.3
v 67816 0 -73644.9
f 365/1/2 366/5/2 362/6/2 361/7/2 

v 67816 5034.82 -62526.3
v 67816 5034.82 -73644.9
f 366/8/3 365/1/3 367/4/3 368/9/3 

f 365/1/4 361/10/4 364/11/4 367/4/4 

f 368/5/5 367/1/5 364/10/5 363/12/5 

f 362/7/6 366/1/6 368/4/6 363/13/6 

g Mesh47 Group47 Model

v 86987.1 0 -104210
v 86987.1 0 -115329
v 86987.1 5034.82 -115329
v 86987.1 5034.82 -104210
f 369/1/1 370/2/1 371/3/1 372/4/1 

v 67816 0 -104210
v 67816 0 -115329
f 373/1/2 374/5/2 370/6/2 369/7/2 

v 67816 5034.82 -104210
v 67816 5034.82 -115329
f 374/8/3 373/1/3 375/4/3 376/9/3 

f 373/1/4 369/10/4 372/11/4 375/4/4 

f 376/5/5 375/1/5 372/10/5 371/12/5 

f 370/7/6 374/1/6 376/4/6 371/13/6 

g Mesh48 Group48 Model

v 86987.1 0 -0
v 86987.1 0 -11118.6
v 86987.1 5034.82 -11118.6
v 86987.1 5034.82 -0
f 377/1/1 378/2/1 379/3/1 380/4/1 

v 67816 0 -0
v 67816 0 -11118.6
f 381/1/2 382/5/2 378/6/2 377/7/2 

v 67816 5034.82 -0
v 67816 5034.82 -11118.6
f 382/8/3 381/1/3 383/4/3 384/9/3 

f 381/1/4 377/10/4 380/11/4 383/4/4 

f 384/5/5 383/1/5 380/10/5 379/12/5 

f 378/7/6 382/1/6 384/4/6 379/13/6 

