# Alias OBJ Model File
# Exported from SketchUp, (c) 2000-2012 Trimble Navigation Limited
# File units = millimeters

mtllib diba2.mtl

g Mesh1 Group1 Model

usemtl Color_B06
v 0 1200 -2259.92
vt -88.9732 47.2441
vn -1 1.77068e-15 -4.77185e-17
v 0 1200 -22259.9
vt -876.375 47.2441
v 0 4163.1 -29536.7
vt -1162.86 163.902
v 1.44382e-11 4822.84 -37378.6
vt -1471.6 189.876
v 0 6.07897e-09 -45000
vt -1771.65 2.39329e-10
v 0 6.07897e-09 -1.04396e-10
vt -4.11009e-12 2.39329e-10
f 1/1/1 2/2/1 3/3/1 4/4/1 5/5/1 6/6/1 

vt 0 88.9732
vn 0 1 -0
v 1.045e+06 1200 -2259.92
vt 41141.7 88.9732
v 1.045e+06 1200 -22259.9
vt 41141.7 876.375
vt 0 876.375
f 1/7/2 7/8/2 8/9/2 2/10/2 

v 1.045e+06 0 -0
vt 41141.7 0
vn 0 0.88321 0.468978
vt 41141.7 100.738
vt 0 100.738
vt 0 1.1587e-10
f 9/11/3 7/12/3 1/13/3 6/14/3 

vt 4.29504e-12 2.50099e-10
vn 1 -6.07897e-15 1.04396e-16
v 1.045e+06 0 -45000
vt 1771.65 2.50099e-10
v 1.045e+06 4822.84 -37378.6
vt 1471.6 189.876
v 1.045e+06 4163.1 -29536.7
vt 1162.86 163.902
vt 876.375 47.2441
vt 88.9732 47.2441
f 9/15/4 10/16/4 11/17/4 12/18/4 8/19/4 7/20/4 

vt -41141.7 0
vn 0 -1 -0
vt 0 4.11009e-12
vt 0 1771.65
vt -41141.7 1771.65
f 9/21/5 6/22/5 5/23/5 10/24/5 

vt -4.46374e-15 -1497.08
vn -1.34728e-18 0.845021 -0.534734
vt -5.72142e-13 -1142
vt -41141.7 -1142
vt -41141.7 -1497.08
f 5/25/6 4/26/6 11/27/6 10/28/6 

vt -4.62544e-15 1172.51
vn -3.3346e-19 0.99648 0.0838339
vt 41141.7 1172.51
vt 41141.7 1482.34
vt 5.62581e-13 1482.34
f 3/29/7 12/30/7 11/31/7 4/32/7 

vt 41141.7 829.481
vn -1.28816e-17 0.926161 0.37713
vt 41141.7 1138.81
vt -3.97199e-14 1138.81
vt -2.99343e-14 829.481
f 8/33/8 12/34/8 3/35/8 2/36/8 

g Mesh2 Group2 Model

usemtl Resin_Blue
v 0 355.502 -112880
vt 0 1160.22
v 1.045e+06 355.502 -112880
vt -41141.7 1160.22
v 1.045e+06 355.502 -85068
vt -41141.7 65.281
v 0 355.502 -85068
vt 0 65.281
f 13/37/5 14/38/5 15/39/5 16/40/5 

vt -41141.7 -805.818
vn 0 0.694537 -0.719457
vt 0 -805.818
v 0 7577.94 -105907
vt 0 -410.592
v 1.045e+06 7577.94 -105907
vt -41141.7 -410.592
f 14/41/9 13/42/9 17/43/9 18/44/9 

vt -1160.22 0
vn -1 0 -0
vt -65.281 0
v 0 1404.78 -83409.9
vt 0 41.3102
v 0 7577.94 -96937.5
vt -532.584 284.348
vt -885.724 284.348
f 13/45/10 16/46/10 19/47/10 20/48/10 17/49/10 

vt 0 -55.1638
vn 0 -0.845021 0.534734
vt 41141.7 -55.1638
v 1.045e+06 1404.78 -83409.9
vt 41141.7 22.0899
vt 0 22.0899
f 16/50/11 15/51/11 21/52/11 19/53/11 

vt 65.281 0
vn 1 0 -0
vt 1160.22 0
vt 885.724 284.348
v 1.045e+06 7577.94 -96937.5
vt 532.584 284.348
f 15/54/12 14/55/12 18/56/12 22/57/12 21/47/12 

vt 41141.7 885.724
vt 0 885.724
vt 0 532.584
vt 41141.7 532.584
f 18/58/2 17/59/2 20/60/2 22/61/2 

vt 0 17.1501
vn 0 0.909751 0.415153
vt 41141.7 17.1501
vt 41141.7 602.567
vt 0 602.567
f 19/62/13 21/63/13 22/64/13 20/65/13 

