# Alias OBJ Model File
# Exported from SketchUp, (c) 2000-2012 Trimble Navigation Limited
# File units = meters

mtllib dita_m.mtl

g Mesh1 Group1 Model

usemtl Brick_Basket
v 1045 0 -0
vt -41141.7 0
vn 0 -1 -0
v 0 6.07897e-12 -1.04396e-13
vt 0 4.11009e-12
v 0 6.07897e-12 -45
vt 0 1771.65
v 1045 0 -45
vt -41141.7 1771.65
f 1/1/1 2/2/1 3/3/1 4/4/1 

vt 41141.7 0
vn 0 0.88321 0.468978
v 1045 1.2 -2.25992
vt 41141.7 100.738
v 0 1.2 -2.25992
vt 0 100.738
vt 0 1.1587e-10
f 1/5/2 5/6/2 6/7/2 2/8/2 

vt 4.29504e-12 2.50099e-10
vn 1 -6.07897e-15 1.04396e-16
vt 1771.65 2.50099e-10
v 1045 4.82284 -37.3786
vt 1471.6 189.876
v 1045 4.1631 -29.5367
vt 1162.86 163.902
v 1045 1.2 -22.2599
vt 876.375 47.2441
vt 88.9732 47.2441
f 1/9/3 4/10/3 7/11/3 8/12/3 9/13/3 5/14/3 

vt -4.46374e-15 -1497.08
vn -1.34728e-18 0.845021 -0.534734
v 1.44382e-14 4.82284 -37.3786
vt -5.72142e-13 -1142
vt -41141.7 -1142
vt -41141.7 -1497.08
f 3/15/4 10/16/4 7/17/4 4/18/4 

vt -88.9732 47.2441
vn -1 1.77068e-15 -4.77185e-17
v 0 1.2 -22.2599
vt -876.375 47.2441
v 0 4.1631 -29.5367
vt -1162.86 163.902
vt -1471.6 189.876
vt -1771.65 2.39329e-10
vt -4.11009e-12 2.39329e-10
f 6/19/5 11/20/5 12/21/5 10/22/5 3/23/5 2/24/5 

vt 0 88.9732
vn 0 1 -0
vt 41141.7 88.9732
vt 41141.7 876.375
vt 0 876.375
f 6/25/6 5/26/6 9/27/6 11/28/6 

vt 41141.7 829.481
vn -1.28816e-17 0.926161 0.37713
vt 41141.7 1138.81
vt -3.97199e-14 1138.81
vt -2.99343e-14 829.481
f 9/29/7 8/30/7 12/31/7 11/32/7 

vt -4.62544e-15 1172.51
vn -3.3346e-19 0.99648 0.0838339
vt 41141.7 1172.51
vt 41141.7 1482.34
vt 5.62581e-13 1482.34
f 12/33/8 8/34/8 7/35/8 10/36/8 

g Mesh2 Group2 Model

usemtl Brick_Antique_02
v 1045 7.72862 -129.899
vt 403.126 155.711
vn 1 2.88207e-15 -6.35796e-18
v 1045 7.83876 -123.12
vt 136.235 160.047
v 1045 3.77356 -119.66
vt -2.61578e-13 -5.11372e-12
v 1045 3.77356 -136.704
vt 671.038 -5.11372e-12
f 13/37/9 14/38/9 15/39/9 16/40/9 

v -1.15506e-14 7.72862 -129.899
vt 0 -400.544
vn 0 0.999868 -0.0162447
v -1.15506e-14 7.83876 -123.12
vt 0 -133.617
vt -41141.7 -133.617
vt -41141.7 -400.544
f 17/41/10 18/42/10 14/43/10 13/44/10 

v 0 3.77356 -136.704
vt -671.038 -1.32291e-27
vn -1 -2.88207e-15 6.35796e-18
v 0 3.77356 -119.66
vt 2.89127e-30 -1.31061e-27
vt -136.235 160.047
vt -403.126 155.711
f 19/45/11 20/46/11 18/47/11 17/48/11 

vt -41141.7 671.038
vt -4.54747e-13 0
vt -4.54747e-13 671.038
f 16/49/1 15/1/1 20/50/1 19/51/1 

vt -41141.7 8.65327e-11
vn 3.86621e-18 -0.648187 -0.761481
vt -4.54747e-13 1.49657e-30
vt 6.91696e-16 210.179
vt -41141.7 210.179
f 15/52/12 20/53/12 18/54/12 14/55/12 

vt -41141.7 -580.166
vn -9.25207e-19 0.86458 -0.502496
vt -4.55983e-13 -580.166
vt -7.42246e-16 -270.291
vt -41141.7 -270.291
f 16/56/13 19/57/13 17/58/13 13/59/13 

g Mesh3 ____1 Model

usemtl FrontColor
v 1045 4.82284 -37.3786
v 1045 4.82284 -39.4648
vt 41141.7 82.1331
v 2.31012e-14 4.82284 -39.4648
vt 9.09495e-13 82.1331
v 2.31012e-14 4.82284 -37.3786
vt 9.09495e-13 0
f 21/5/6 22/60/6 23/61/6 24/62/6 

v 1045 -5.98744e-12 -45
vt 300.054 1.06077e-11
vn 1 -5.98744e-15 1.39311e-29
v 1045 -5.98744e-12 -47.0862
vt 382.187 1.06077e-11
vt 82.1331 189.876
vt 5.73151e-25 189.876
f 25/63/14 26/64/14 22/65/14 21/66/14 

vt -41141.7 382.187
vt -41141.7 300.054
v 0 0 -45
vt 0 300.054
v 0 0 -47.0862
vt 0 382.187
f 26/67/1 25/68/1 27/69/1 28/70/1 

vt 41141.7 -253.552
vn -3.61099e-18 -0.845021 0.534734
vt 41141.7 101.533
vt 9.09495e-13 101.533
vt -2.02623e-15 -253.552
f 25/71/15 21/72/15 24/73/15 27/74/15 

vt -6.33514e-42 189.876
vn -1 4.78995e-15 -6.96556e-30
vt -82.1331 189.876
vt -382.187 -1.27516e-41
vt -300.054 -1.00112e-41
f 24/75/16 23/76/16 28/77/16 27/78/16 

vt 2.58086e-15 -322.956
vn 3.61099e-18 0.845021 -0.534734
vt -9.0894e-13 32.1287
vt -41141.7 32.1287
vt -41141.7 -322.956
f 28/79/17 23/80/17 22/81/17 26/82/17 

g Mesh4 ___1 Model

v 1045 0 -47.0862
vt -41141.7 234.773
v 0 0 -47.0862
vt 0 234.773
v 0 0 -142.396
vt 0 3987.13
v 1045 0 -142.396
vt -41141.7 3987.13
f 29/83/1 30/84/1 31/85/1 32/86/1 

vt 0 -198.388
vn 0 -0.845021 0.534734
vt 41141.7 -198.388
v 1045 3.77356 -41.123
vt 41141.7 79.4429
v 0 3.77356 -41.123
vt 0 79.4429
f 30/87/18 29/88/18 33/89/18 34/90/18 

vt 234.773 0
vn 1 0 -0
vt 3987.13 0
v 1045 3.77356 -142.733
vt 4000.4 148.565
vt 0 148.565
f 29/91/19 32/92/19 35/93/19 33/94/19 

vt -41141.7 354.656
vn 0 -0.0889501 -0.996036
vt 0 354.656
v 0 3.77356 -142.733
vt 0 503.813
vt -41141.7 503.813
f 32/95/20 31/96/20 36/97/20 35/98/20 

vt -3987.13 0
vn -1 0 -0
vt -234.773 0
vt -4000.4 148.565
f 31/99/21 30/100/21 34/94/21 36/101/21 

vt 0 0
vt 41141.7 4000.4
vt 0 4000.4
f 34/102/6 33/5/6 35/103/6 36/104/6 

g Mesh5 ____1_1 Model

usemtl Color_A05
v 0 3.77356 -68.9345
vt -1160.22 0
v 0 3.77356 -41.123
vt -65.281 0
v 0 4.82284 -39.4648
vt 0 41.3102
v 0 10.996 -52.9924
vt -532.584 284.348
v 0 10.996 -61.9622
vt -885.724 284.348
f 37/105/21 38/106/21 39/107/21 40/108/21 41/109/21 

vt 0 1160.22
v 1045 3.77356 -68.9345
vt -41141.7 1160.22
v 1045 3.77356 -41.123
vt -41141.7 65.281
vt 0 65.281
f 37/110/1 42/111/1 43/112/1 38/113/1 

vt -41141.7 -805.818
vn 0 0.694537 -0.719457
vt 0 -805.818
vt 0 -410.592
v 1045 10.996 -61.9622
vt -41141.7 -410.592
f 42/114/22 37/115/22 41/116/22 44/117/22 

vt 41141.7 885.724
vt 0 885.724
vt 0 532.584
v 1045 10.996 -52.9924
vt 41141.7 532.584
f 44/118/6 41/119/6 40/120/6 45/121/6 

vt 0 17.1501
vn 0 0.909751 0.415153
v 1045 4.82284 -39.4648
vt 41141.7 17.1501
vt 41141.7 602.567
vt 0 602.567
f 39/122/23 46/123/23 45/124/23 40/125/23 

vt 0 -55.1638
vt 41141.7 -55.1638
vt 41141.7 22.0899
vt 0 22.0899
f 38/126/18 43/127/18 46/128/18 39/129/18 

vt 65.281 0
vt 1160.22 0
vt 885.724 284.348
vt 532.584 284.348
f 43/130/19 42/131/19 44/132/19 45/133/19 46/107/19 

g Mesh6 ___2_1 Model

usemtl _Brick_Basket_2
v 0 3.77356 -68.9345
vt -1.42109e-14 5.87382
vt -1.42109e-14 68.2818
v 1045 3.77356 -119.66
vt -1285.68 68.2818
v 1045 3.77356 -68.9345
vt -1285.68 5.87382
f 47/134/1 20/135/1 48/136/1 49/137/1 

v -8.15729e-15 8.09738 -105.799
vt -51.2289 5.31966
vn -1 -5.6851e-16 3.46319e-16
vt -72.5392 5.00147
vt -68.2818 -2.15227e-29
vt -5.87382 -9.23548e-30
v 2.31012e-14 10.9768 -61.9336
vt 2.73943 8.86223
v -9.11536e-19 15.8044 -72.2312
vt -9.92983 14.8017
v -8.15821e-15 15.1827 -88.3043
vt -29.7048 14.0368
f 50/138/24 18/139/24 20/140/24 47/141/24 51/142/24 52/143/24 53/144/24 

vt 1.22022e-15 -72.4564
vn 2.51139e-19 0.999889 -0.0149296
vt -3.31306e-15 -51.1437
v 1045 8.09738 -105.799
vt -1285.68 -51.1437
v 1045 7.83876 -123.12
vt -1285.68 -72.4564
f 18/145/25 50/146/25 54/147/25 55/148/25 

vt -1285.68 -45.4857
vn 4.27458e-33 0.926871 -0.375379
vt -4.17481e-15 -45.4857
vt -4.17369e-15 -22.2634
v 1045 15.1827 -88.3043
vt -1285.68 -22.2634
f 54/149/26 50/150/26 53/151/26 56/152/26 

v 1045 15.8044 -72.2312
vt -1285.68 -9.35029
vn -1.65997e-19 0.999253 -0.0386518
vt -1285.68 -29.1401
vt -4.30126e-15 -29.1401
vt -1.42524e-14 -9.35029
f 57/153/27 56/154/27 53/155/27 52/156/27 

vt 5.87382 -2.52484e-14
vn 1 4.62457e-16 -3.31082e-16
vt 68.2818 -2.52484e-14
vt 72.5392 5.00147
vt 51.2289 5.31966
vt 29.7048 14.0368
vt 9.92983 14.8017
v 1045 10.9768 -61.9336
vt -2.73943 8.86223
f 49/157/28 48/158/28 55/159/28 54/160/28 56/161/28 57/162/28 58/163/28 

vt 4.26377e-14 1.28145
vn -7.93664e-19 0.905438 0.424479
vt 1285.68 1.28145
vt 1285.68 15.2739
vt 1.41912e-14 15.2739
f 51/164/29 58/165/29 57/166/29 52/167/29 

vt 1.42243e-14 -4.09382
vn 1.6433e-18 -0.696961 0.717109
vt 1285.68 -4.09382
vt 1285.68 8.26446
vt 4.26263e-14 8.26446
f 47/168/30 49/169/30 58/170/30 51/171/30 

