# Alias OBJ Model File
# Exported from SketchUp, (c) 2000-2012 Trimble Navigation Limited
# File units = millimeters

mtllib ban.mtl

g Mesh1 ____1 Model

usemtl FrontColor
v 1.22841e+06 4822.84 270223
vt 49015.7 0
vn 0 1 -0
v 1.22868e+06 4822.84 268155
vt 49015.7 82.1331
v -5666.1 4822.84 105650
vt 9.66338e-13 82.1331
v -5938.4 4822.84 107718
vt 9.09495e-13 0
f 1/1/1 2/2/1 3/3/1 4/4/1 

v 1.22941e+06 -7.18493e-09 262667
vt 300.054 1.06077e-11
vn 0.991445 -5.98744e-15 0.130526
v 1.22968e+06 -7.18493e-09 260599
vt 382.187 1.06077e-11
vt 82.1331 189.876
vt 0 189.876
f 5/5/2 6/6/2 2/7/2 1/8/2 

vt -49015.7 382.187
vn 0 -1 -0
vt -49015.7 300.054
v -4943.62 0 100162
vt 5.68434e-14 300.054
v -4671.32 0 98093.5
vt -5.68434e-14 382.187
f 6/9/3 5/10/3 7/11/3 8/12/3 

vt 49015.7 -253.552
vn -0.0697967 -0.845021 0.530159
vt 49015.7 101.533
vt 9.09495e-13 101.533
vt -5.68434e-14 -253.552
f 5/13/4 1/14/4 4/15/4 7/16/4 

vn -0.991445 4.78995e-15 -0.130526
vt -82.1331 189.876
vt -382.187 2.72277e-28
vt -300.054 -2.72277e-28
f 4/8/5 3/17/5 8/18/5 7/19/5 

vt -5.68434e-14 -322.956
vn 0.0697967 0.845021 -0.530159
vt -9.66338e-13 32.1287
vt -49015.7 32.1287
vt -49015.7 -322.956
f 8/20/6 3/21/6 2/22/6 6/23/6 

g Mesh2 ___1 Model

v 1.22968e+06 0 260599
vt -49015.7 234.773
v -4671.32 0 98093.5
vt -5.68434e-14 234.773
v 7769.13 0 3598.94
vt -5.68434e-14 3987.13
v 1.24212e+06 0 166104
vt -49015.7 3987.13
f 9/24/3 10/25/3 11/26/3 12/27/3 

vt 5.68434e-14 -198.388
vt 49015.7 -198.388
v 1.2289e+06 3773.56 266511
vt 49015.7 79.4429
v -5449.67 3773.56 104006
vt 0 79.4429
f 10/28/4 9/29/4 13/30/4 14/31/4 

vt 234.773 0
vn 0.991445 0 0.130526
vt 3987.13 0
v 1.24216e+06 3773.56 165770
vt 4000.4 148.565
vt 0 148.565
f 9/32/7 12/33/7 15/34/7 13/35/7 

vt -49015.7 354.656
vn 0.130009 -0.0889501 -0.987515
vt -5.68434e-14 354.656
v 7813.12 3773.56 3264.83
vt -5.68434e-14 503.813
vt -49015.7 503.813
f 12/36/8 11/37/8 16/38/8 15/39/8 

vt -3987.13 0
vn -0.991445 0 -0.130526
vt -234.773 0
vt -4000.4 148.565
f 11/40/9 10/41/9 14/35/9 16/42/9 

vt 0 0
vt 49015.7 4000.4
vt 5.68434e-14 4000.4
f 14/43/1 13/1/1 15/44/1 16/45/1 

g Mesh3 ___1_1 Model

usemtl Polished_Concrete_New
v -4943.62 0 100162
vt 1.89478e-15 -24.9514
v -5938.4 4822.84 107718
vt -5.68434e-15 -19.0333
v 1.22841e+06 4822.84 270223
vt -816.929 -19.0333
v 1.22941e+06 -7.29476e-09 262667
vt -816.929 -24.9514
f 17/46/6 18/47/6 19/48/6 20/49/6 

v -10522.3 1200 142536
vt -1.48289 0.787402
vn -0.991445 1.77068e-15 -0.130526
v -7911.79 1200 122707
vt -14.6062 0.787402
v -6961.98 4163.1 115493
vt -19.3811 2.73169
vt -24.5267 3.16459
vt -29.5276 -6.25738e-30
v -10817.3 0 144777
f 21/50/10 22/51/10 23/52/10 18/53/10 17/54/10 24/43/10 

vt -4.73695e-15 1.48289
v 1.22383e+06 1200 305041
vt 816.929 1.48289
v 1.22644e+06 1200 285213
vt 816.929 14.6062
vt 0 14.6062
f 21/55/1 25/56/1 26/57/1 22/58/1 

v 1.22353e+06 -7.29476e-09 307282
vt 816.929 -2.31174e-12
vn -0.0612139 0.88321 0.464966
vt 816.929 1.67897
vt -4.73695e-15 1.67897
f 27/59/11 25/60/11 21/61/11 24/43/11 

vt 1.49061e-14 1.79497e-13
vn 0.991445 -6.07897e-15 0.130526
vt 29.5276 1.79497e-13
vt 24.5267 3.16459
v 1.22739e+06 4163.1 277998
vt 19.3811 2.73169
vt 14.6062 0.787402
vt 1.48289 0.787402
f 27/62/12 20/63/12 19/64/12 28/65/12 26/66/12 25/67/12 

vt -816.929 -7.57912e-14
vt 1.89478e-15 29.5276
vt -816.929 29.5276
f 27/68/3 24/43/3 17/69/3 20/70/3 

vt -2.84217e-15 19.5418
vn -0.0109425 0.99648 0.0831167
vt 816.929 19.5418
vt 816.929 24.7056
vt 5.68434e-15 24.7056
f 23/71/13 28/72/13 19/73/13 18/74/13 

vt 816.929 13.8247
vn -0.0492253 0.926161 0.373903
vt 816.929 18.9802
vt -3.55536e-15 18.9802
vt -5.37487e-16 13.8247
f 26/75/14 28/76/14 23/77/14 22/78/14 

g Mesh4 ____1_1 Model

usemtl Polished_Concrete_Old
v -1819.54 3773.56 76432.1
vt -32.2284 0
v -5449.67 3773.56 104006
vt -1.81336 0
v -5666.1 4822.84 105650
vt 0 1.14751
v -3900.39 10996 92237.8
vt -14.794 7.89855
v -2729.6 10996 83344.8
vt -24.6035 7.89855
f 29/79/9 30/80/9 31/81/9 32/82/9 33/83/9 

vt 3.15797e-15 32.2284
v 1.23253e+06 3773.56 238937
vt -1361.55 32.2284
vt -1361.55 1.81336
vt 3.15797e-15 1.81336
f 29/84/3 34/85/3 13/86/3 30/87/3 

vt -1361.55 -22.3838
vn 0.093908 0.694537 -0.713302
vt 3.77963e-15 -22.3838
vt 2.05357e-15 -11.4053
v 1.23162e+06 10996 245850
vt -1361.55 -11.4053
f 34/88/15 29/89/15 33/90/15 35/91/15 

vt 1361.55 24.6035
vt -1.57898e-15 24.6035
vt -3.15797e-15 14.794
v 1.23045e+06 10996 254743
vt 1361.55 14.794
f 35/92/1 33/93/1 32/94/1 36/95/1 

vt 0 0.476391
vn -0.0541884 0.909751 0.411602
v 1.22868e+06 4822.84 268155
vt 1361.55 0.476391
vt 1361.55 16.738
vt -3.15797e-15 16.738
f 31/96/16 37/97/16 36/98/16 32/99/16 

vt -3.15797e-15 -1.53233
vt 1361.55 -1.53233
vt 1361.55 0.613609
vt 0 0.613609
f 30/100/4 13/101/4 37/102/4 31/103/4 

vt 1.81336 0
vt 32.2284 0
vt 24.6035 7.89855
vt 14.794 7.89855
f 13/104/7 34/105/7 35/106/7 36/107/7 37/81/7 

g Mesh5 ____2_1 Model

usemtl FrontColor
v 1.24138e+06 3773.56 171747
vt -49015.7 671.038
v 1.23915e+06 3773.56 188646
vt -49015.7 -2.27374e-13
v 4801.43 3773.56 26140.9
vt -4.54747e-13 0
v 7026.17 3773.56 9242.32
vt -5.11591e-13 671.038
f 38/108/3 39/109/3 40/110/3 41/111/3 

v 1.24049e+06 7728.62 178494
vt 403.126 155.711
vn 0.991445 2.88207e-15 0.130526
v 1.2396e+06 7838.76 185215
vt 136.235 160.047
vt -2.27374e-13 -5.12663e-12
vt 671.038 -5.12663e-12
f 42/112/17 43/113/17 39/114/17 38/115/17 

v 6137.94 7728.62 15989.1
vt 0 -400.544
vn 0.00212036 0.999868 -0.0161057
v 5253.1 7838.76 22710.1
vt 0 -133.617
vt -49015.7 -133.617
vt -49015.7 -400.544
f 44/116/18 45/117/18 43/118/18 42/119/18 

vt -671.038 -1.47444e-27
vn -0.991445 -2.88207e-15 -0.130526
vt 0 -1.31061e-27
vt -136.235 160.047
vt -403.126 155.711
f 41/120/19 40/121/19 45/122/19 44/123/19 

vt -49015.7 1.041e-10
vn 0.0993932 -0.648187 -0.754967
vt -4.54747e-13 5.37194e-30
vt 2.48285e-15 210.179
vt -49015.7 210.179
f 39/124/20 40/125/20 45/126/20 43/127/20 

vt -49015.7 -580.166
vn 0.0655888 0.86458 -0.498197
vt -5.11591e-13 -580.166
vt 0 -270.291
vt -49015.7 -270.291
f 38/128/21 41/129/21 44/130/21 42/131/21 

g Mesh6 ___2_1 Model

usemtl Concrete_Aggregate_Smoke
v -1819.54 3773.56 76432.1
vt -3.78956e-14 15.6635
v 4801.43 3773.56 26140.9
vt -1.89478e-14 182.085
v 1.23915e+06 3773.56 188646
vt -4084.65 182.085
v 1.23253e+06 3773.56 238937
vt -4084.65 15.6635
f 46/132/3 47/133/3 48/134/3 49/135/3 

v 2992.25 8097.38 39882.9
vt -136.61 14.1858
vn -0.991445 -5.6851e-16 -0.130526
v 5253.1 7838.76 22710.1
vt -193.438 13.3373
vt -182.085 -4.52501e-29
vt -15.6635 -2.45099e-29
v -2733.33 10976.8 83373.1
vt 7.30514 23.6326
v -1389.23 15804.4 73163.6
vt -26.4795 39.4712
v 708.733 15182.7 57228
vt -79.2129 37.4315
f 50/136/22 51/137/22 47/138/22 46/139/22 52/140/22 53/141/22 54/142/22 

vt -2.80953e-15 -193.217
vn 0.0019487 0.999889 -0.0148019
vt -1.14581e-14 -136.383
v 1.23734e+06 8097.38 202388
vt -4084.65 -136.383
v 1.2396e+06 7838.76 185215
vt -4084.65 -193.217
f 51/143/23 50/144/23 55/145/23 56/146/23 

vt -4084.65 -121.295
vn 0.0489968 0.926871 -0.372167
vt -9.4739e-15 -121.295
vt -9.4739e-15 -59.3692
v 1.23506e+06 15182.7 219733
vt -4084.65 -59.3692
f 55/147/24 50/148/24 54/149/24 57/150/24 

v 1.23296e+06 15804.4 235669
vt -4084.65 -24.9341
vn 0.00504508 0.999253 -0.0383212
vt -4084.65 -77.7069
vt -9.4739e-15 -77.7069
vt -3.78956e-14 -24.9341
f 58/151/25 57/152/25 54/153/25 53/154/25 

vt 15.6635 -6.76135e-14
vn 0.991445 4.62457e-16 0.130526
vt 182.085 -6.76135e-14
vt 193.438 13.3373
vt 136.61 14.1858
vt 79.2129 37.4315
vt 26.4795 39.4712
v 1.23162e+06 10976.8 245878
vt -7.30514 23.6326
f 49/155/26 48/156/26 56/157/26 55/158/26 57/159/26 58/160/26 59/161/26 

vt 1.22922e-13 3.41719
vn -0.0554056 0.905438 0.420847
vt 4084.65 3.41719
vt 4084.65 40.7303
vt 3.87613e-14 40.7303
f 52/162/27 59/163/27 58/164/27 53/165/27 

vt 3.72894e-14 -10.9169
vn -0.0936015 -0.696961 0.710974
vt 4084.65 -10.9169
vt 4084.65 22.0386
vt 1.23443e-13 22.0386
f 46/166/28 49/167/28 59/168/28 52/169/28 

